<svg width="74" height="45" viewBox="0 0 74 45" fill="none" xmlns="http://www.w3.org/2000/svg">
<g clip-path="url(#clip0_956_1178)">
<path d="M66.8407 37.4097L4.22068 32.9897C1.72068 32.8097 -0.159323 30.6397 0.0106774 28.1397L1.70068 4.2197C1.88068 1.7197 4.05068 -0.160299 6.55068 0.00970082L69.1707 4.4197C71.6707 4.5997 73.5507 6.7697 73.3807 9.2597L71.6807 33.1997C71.5107 35.6997 69.3407 37.5897 66.8407 37.4097Z" fill="#7EB2C5"/>
<path d="M34.2711 43.9094L22.3311 30.1494C20.9111 28.5094 22.1811 25.9794 24.3411 26.1294L48.1911 27.8094C50.2611 27.9594 51.2111 30.4694 49.7511 31.9394L37.8411 44.0194C36.8511 45.0294 35.2011 44.9794 34.2711 43.9094Z" fill="#7EB2C5"/>
<path d="M11.781 13.1001L11.941 10.8701L19.111 11.3801L18.981 13.1901L16.391 15.7501C17.321 15.9701 18.021 16.4201 18.481 17.0801C18.951 17.7501 19.151 18.4901 19.101 19.3201C19.011 20.5501 18.531 21.4801 17.651 22.1201C16.771 22.7601 15.681 23.0301 14.381 22.9401C13.081 22.8501 11.801 22.3001 10.541 21.2901L11.761 19.2901C12.811 20.1501 13.771 20.6101 14.641 20.6701C15.171 20.7101 15.611 20.6101 15.971 20.3801C16.331 20.1501 16.531 19.7901 16.561 19.3001C16.591 18.8101 16.431 18.4201 16.061 18.1001C15.691 17.7901 15.161 17.6101 14.461 17.5601C14.091 17.5301 13.561 17.6001 12.881 17.7701L13.021 15.8401L15.451 13.3501L11.781 13.1001Z" fill="#F2F8FC"/>
<path d="M26.3818 13.88C25.6518 13.83 25.0818 14.03 24.6518 14.49C24.2218 14.95 23.9318 15.59 23.7818 16.42C24.5418 16 25.3318 15.82 26.1418 15.88C27.2318 15.96 28.1218 16.38 28.8018 17.14C29.4818 17.91 29.7818 18.88 29.7018 20.07C29.6218 21.26 29.1618 22.18 28.3218 22.84C27.4818 23.5 26.4718 23.79 25.2718 23.7C24.4418 23.64 23.7418 23.43 23.1518 23.07C22.5618 22.71 22.1218 22.23 21.8318 21.64C21.2418 20.49 21.0018 19.08 21.1218 17.41C21.2018 16.34 21.3918 15.41 21.7118 14.61C22.0318 13.82 22.4318 13.21 22.9318 12.77C23.8918 11.9 25.0318 11.5 26.3518 11.6C26.9018 11.64 27.4118 11.76 27.9018 11.95C28.3918 12.15 28.7618 12.34 29.0118 12.53C29.2718 12.72 29.5518 12.95 29.8518 13.23L28.4718 15C28.4118 14.93 28.3218 14.83 28.2018 14.71C28.0818 14.59 27.8418 14.43 27.4718 14.22C27.1018 14.02 26.7318 13.9 26.3818 13.88ZM25.7318 18.07C25.2118 18.03 24.7618 18.16 24.3918 18.44C24.0218 18.72 23.8118 19.11 23.7818 19.6C23.7518 20.09 23.8818 20.52 24.1918 20.9C24.5018 21.28 24.9118 21.48 25.4118 21.52C25.9118 21.56 26.3418 21.43 26.7018 21.14C27.0618 20.85 27.2518 20.46 27.2918 19.96C27.3318 19.46 27.2018 19.03 26.9318 18.67C26.6518 18.31 26.2518 18.11 25.7318 18.07Z" fill="#F2F8FC"/>
<path d="M34.0217 24.1998L31.5117 24.0198L32.3917 11.5898L34.9017 11.7698L34.4517 18.1498L37.4617 15.3598L40.6317 15.5798L36.9317 18.9998L40.1217 24.6298L37.1417 24.4198L35.0917 20.8098L34.2117 21.6098L34.0217 24.1998Z" fill="#F2F8FC"/>
<path d="M58.2215 14.2699C58.0515 16.6799 55.9615 18.4999 53.5515 18.3299C51.1415 18.1599 49.3215 16.0699 49.4915 13.6599C49.6615 11.2499 51.7515 9.42987 54.1615 9.59987C56.5715 9.76987 58.3915 11.8599 58.2215 14.2699Z" fill="#F2F8FC"/>
<path d="M60.1109 28.0497C61.4309 28.1397 62.4509 26.8397 61.9809 25.5997C60.6509 22.1297 57.4209 19.5697 53.4809 19.2897C49.5309 19.0097 45.9709 21.0997 44.1709 24.3397C43.5309 25.4997 44.3509 26.9397 45.6809 27.0297L60.1109 28.0497Z" fill="#F2F8FC"/>
</g>
<defs>
<clipPath id="clip0_956_1178">
<rect width="73.38" height="44.74" fill="white"/>
</clipPath>
</defs>
</svg>
